<svg width="81" height="35" fill="none" xmlns="http://www.w3.org/2000/svg">
    <path d="M49.687 30.511c.015.026.027.05.039.08l.005.018a.451.451 0 01-.131.478.43.43 0 01-.653-.09l-.364-.515-.807-1.196a3.782 3.782 0 01-.097-.129c-.467-.562-1.14-.585-1.738-.44l-.006.001-.008.002a3.008 3.008 0 00-.084.022c-.996.31-3.359 2.414-3.445 2.491a279.298 279.298 0 00-2.956 2.726l-.114.106c-.02.015-.054.047-.087.079a.929.929 0 01-.084.075l-.771.716h-.001c-.077.05-.256.071-.348.063a.434.434 0 01-.302-.154.455.455 0 01-.106-.328c.008-.107.035-.227.112-.306l.008-.008a.126.126 0 01.012-.01l1.158-1.222c.31-.318.951-1.081 1.56-1.806.46-.548.9-1.073 1.166-1.367 1.853-2.183 2.705-4.66 2.797-4.937a15.72 15.72 0 00.443-1.761l.003-.016v.001c.054-.263.153-.448.374-.569a.969.969 0 01.145-.064.732.732 0 01.39.016.552.552 0 01.076.042c.205.141.334.457.336.461l.72 1.713 2.42 5.208.338.62z"
          fill="#6F6D72"/>
    <path d="M46.656 30.137a1.007 1.007 0 00-.467.026l-.199.057c-.48.174-1.097.598-1.799 1.242-.931.738-1.613 1.672-1.828 1.983l.005.002-.078.11a.807.807 0 00.142 1.1c.11.103.238.16.374.17.031.004.063 0 .093-.002h.005c.075 0 .13-.006.18-.017.59-.077 1.68-.538 2.12-.733l.184-.082c.245-.117.483-.258.705-.418.526-.378.797-.674.932-.855l.003-.005a1.66 1.66 0 00.068-.1c.124-.19.338-.552.408-.894l.002-.017c.127-.57-.059-.918-.061-.921a1.051 1.051 0 00-.789-.646zM4.094 3.925L12.65 18.52l8.53-14.595h1.586l-9.535 16.393v10.138H9.693v-10.03L0 3.925h4.094zM79.733 18.916V3.93H81v14.95c0 8.592-2.667 11.576-10.327 11.576-7.184 0-10.432-3.343-10.432-11.684V3.93h3.618v14.986c0 7.082 1.823 9.634 7.792 9.634 6.18 0 8.082-2.48 8.082-9.634zM49.538 21.993v-.002c-1.805-5.311-4.247-12.5-10.545-12.265h-.008l-.009.001c-.036 0-.071.003-.107.006-3.652.223-6.423 4.262-8.855 7.806-.353.514-.698 1.017-1.038 1.497-1.627 2.297-2.788 3.89-2.788 3.89a.521.521 0 00-.135.316c-.02.286.19.535.47.556.142.01.275-.04.375-.13 0 0 .97-.645 2.937-3.122.429-.54.87-1.12 1.322-1.713 2.415-3.173 5.119-6.726 7.837-6.696 4.427.05 6.46 4.84 8.568 9.809v.001c.42.99.844 1.986 1.289 2.953a73.419 73.419 0 001.758 3.569c.082.14.227.237.398.25.28.021.661-.23.517-.69 0 0-1.212-3.783-1.647-5.042l-.337-.988-.002-.006z"
          fill="#6F6D72"/>
    <path d="M39.643 6.39l.015.005c7.187.319 10.47 8.18 12.355 14.21 0 0 .955 2.778 1.053 3.748.029.285-.264.5-.544.48a.505.505 0 01-.386-.232s-.99-2.479-1.396-3.508l-.221-.563c-1.955-4.983-4.901-12.493-11.206-12.245-4.909.194-8.25 4.143-11.57 9.541-.356.578-.658.996-.894 1.293 0 0-.482.733-.84.838h-.002l-.004.002-.003.001h-.002l-.002.001h-.003a.499.499 0 01-.19.024.524.524 0 01-.4-.782l.875-1.552.057-.108c.144-.272.303-.571.477-.895 2.654-4.936 6.736-10.277 12.455-10.263a.9.9 0 01.376.006z"
          fill="#6F6D72"/>
    <path d="M40.019 3.053c11.048.194 13.878 14.422 13.878 14.422l.004.018a.512.512 0 01-.543.568.51.51 0 01-.45-.371c-.158-.508-3.952-12.385-12.832-12.744a.911.911 0 01-.274-.008c-6.17-.083-11.149 6.031-12.62 8.045l-.436.623a.504.504 0 01-.456.223.515.515 0 01-.425-.731s4.633-10.14 14.057-10.045h.097z"
          fill="#6F6D72"/>
    <path d="M30.5 4.315c.033.115.13.191.24.202.034.007.07.006.106-.005a.225.225 0 00.056-.027v.001s4.275-3.01 9.544-2.85a.574.574 0 00.284.013c3.446.18 6.19 1.676 7.539 2.568l.004.004c.071.055.755.59.88.704h.002c.07.077.177.112.282.081a.284.284 0 00.153-.426l-.003-.004s-.945-1.098-1.585-1.626L48 2.948C46.579 1.688 44.107.103 40.596.013h-.002c-.077-.008-.125-.007-.179-.007h-.02a12.06 12.06 0 00-1.67.064h-.01c-.916.035-1.98.334-2.761.6a8.91 8.91 0 00-1.069.402l-.038.017h.001c-2.154.977-3.994 2.68-4.252 2.923l-.025.025-.002.002-.004.004a.286.286 0 00-.064.272zM39.215 30.131l-.038.04c-.177.177-.325.329-.444.457-.697.703-1.467 1.414-2.228 1.989a29.11 29.11 0 01-1.038.72l-.03.02-.383.258-.001.001-.002.001-.002.001-.005.004v-.001a.564.564 0 01-.37.083.594.594 0 01-.39-.953l-.001-.002.006-.005a.565.565 0 01.055-.06l.004-.005.001-.001 1.652-1.623c1.036-1.063 2.389-2.52 3.615-4.067 2.978-3.985 2.757-7.886 2.31-9.011-.49-1.24-1.355-1.968-2.256-2.172-.506-.114-1.04.006-1.536.238-.778.386-1.638 1.298-2.26 2.05-.275.352-.558.724-.85 1.11l-.027.035-.001.002c-.3.394-.61.8-.933 1.212-2.868 3.645-5.75 6.114-5.75 6.114a.576.576 0 01-.452.17.592.592 0 01-.54-.639.598.598 0 01.17-.377s1.715-1.75 4.103-4.749c.059-.074.117-.15.175-.225l.03-.04v.003l.004-.007.008-.012c.326-.426.64-.872.954-1.33.672-.921 1.442-1.944 2.18-2.82.002 0 .004-.003.007-.007a8.132 8.132 0 011.433-1.506c1.236-.99 2.5-1.376 3.659-1.114 1.346.304 2.55 1.397 3.292 2.959.26.603.733 2.116.389 4.659-.083.612-.217 1.28-.414 1.98-.165.504-1.098 3.163-3.217 5.666-.122.137-.249.278-.383.424-.165.17-.27.284-.331.357l-.164.173z"
          fill="#6F6D72"/>
    <path d="M40.167 21.882c.5-1.743.497-2.628.458-2.984a2.732 2.732 0 00-.176-.674c-.189-.358-.434-.543-.632-.635a1.629 1.629 0 00-.272-.099h-.004l-.003-.002c-.081-.02-.161-.034-.24-.041h-.031c-.153 0-.317.044-.487.12a.98.98 0 01-.146.074c-.08.044-.16.094-.241.15-.504.387-1.317 1.368-2.033 2.294l-6.562 7.845c-.336.366-.546.592-.546.592a.597.597 0 00-.167.374.592.592 0 00.54.639.574.574 0 00.39-.117c.136-.093.508-.353 1.022-.751 3.454-2.728 6.973-7.956 7.548-8.826l.07-.107a.373.373 0 01.197-.143l.017-.002h.003a.272.272 0 01.193.055c.058.054.122.198-.019.571l-.542 1.435c-.695 1.534-1.964 3.973-3.777 6.056h-.001v.001l-.003.003-.234.273c-1.332 1.551-2.665 3.054-2.665 3.054a.6.6 0 00-.159.377.592.592 0 00.553.627.575.575 0 00.388-.126c.24-.173 1.23-.901 2.44-2.014 3.004-2.764 4.455-5.992 5.121-8.02z"
          fill="#6F6D72"/>
</svg>
